<svg height="571.073" viewBox="280.313 204.174 940.667 1142.146" width="470.334" xmlns="http://www.w3.org/2000/svg" xmlns:xlink="http://www.w3.org/1999/xlink"><linearGradient id="a" gradientUnits="userSpaceOnUse" x1="823.596" x2="1002.83" y1="988.416" y2="767.524"><stop offset="0" stop-color="#a1864d"/><stop offset="1" stop-color="#ccb276"/></linearGradient><linearGradient id="b" gradientUnits="userSpaceOnUse" x1="309.433" x2="693.393" y1="951.908" y2="1105.44"><stop offset="0" stop-color="#a88c53"/><stop offset="1" stop-color="#ceb376"/></linearGradient><linearGradient id="c" gradientUnits="userSpaceOnUse" x1="495.238" x2="701.322" y1="566.496" y2="293.89"><stop offset="0" stop-color="#ceb57a"/><stop offset="1" stop-color="#fdecb6"/></linearGradient><linearGradient id="d" gradientUnits="userSpaceOnUse" x1="1053.47" x2="1095.06" y1="591.069" y2="307.242"><stop offset="0" stop-color="#cdb277"/><stop offset="1" stop-color="#efdaa3"/></linearGradient><path d="m695.727 668.513c12.603 2.038 25.2 3.41 37.9 4.677 4.189-.034 8.308-.02 12.483.344 21.216.876 42.686.043 63.576 4.285-3.843 23.329 3.787 22.506 3.879 38.137 6.113 14.778 16.75 25.201 31.486 31.292 19.556 8.084 42.511 9.119 63.386 11.147 10.351 1.005 20.811 1.571 30.58 5.486 4.733 1.897 8.8 4.912 12.808 8.004 33.628 22.001 64.225 49.684 95.235 75.188 9.33 7.679 22.64 15.497 29.73 25.048-17.09 3.427-34.61 8.046-51.92 10.016 2.54 12.121 10.53 82.574 13.89 86.14.14-21.884-2.17-54.429 13.91-71.142 3.32-3.456 7.46-4.77 11.07-7.581 7.94 13.922 67.09 47.328 83.18 51.8 7.91 2.2 17.54 2.647 24.85 6.277l-3.35 3.206c6.66 1.802 21.86-7.255 27.65-10.589 7.52-4.333 15.76-9.013 22.67-14.258-6.4 14.007-11.82 28.387-17.79 42.577-9.27 21.955-18.65 43.863-28.14 65.723-22.63 4.5-45.98 6.22-68.79 10.06-20.36 3.42-41.32 9.52-61.81 11.07-18.56-8.72-74.539-47.88-81.38-66.549-3.309-9.026-4.17-18.296-8.995-26.85-11.828-20.974-83.389-91.802-104.177-105.865 20.079 27.816 38.287 56.172 56.369 85.328 9.8 15.802 22.004 32.795 27.646 50.618-27.222-6.818-53.794-17.809-80.885-25.569-23.627-6.768-48.079-10.342-71.614-17.07-16.827-4.145-33.669-8.61-49.429-15.964-35.688-16.654-63.291-45.897-76.769-82.998-.289-.884-.573-1.77-.85-2.657-9.124-29.216-10.894-61.213 3.882-88.998 7.881-14.82 18.608-23.306 34.566-28.177 7.331 4.392 14.071 9.911 21.246 14.595 13.671 8.745 28.213 16.049 43.392 21.793-25.396-26.58-46.856-64.2-59.485-98.544zm442.393 303.649c9.66-6.958 16.01-15.262 21.72-25.618-27.93-7.471-57.49-6.986-84.45-18.782-3.61 10.158-6.62 30.709-1.79 40.921 1.26 2.64 1.89 2.845 4.4 4.023 11.17-.973 18.54-16.912 29.54-16.211 10.43.664 20.54 19.021 30.58 15.667z" fill="url(#a)"/><path d="m951.825 771.885-.443 1.616-1.814.468c-2.09-1.514-4.19-3.306-6.692-4.054-1.546-.463-2.387.553-3.696 1.387-7.825 4.989-15.253 7.179-24.47 7.698-24.628 1.387-73.395-11.906-91.746-29.05-13.358-12.479-14.45-32.824-14.777-49.99 1.436 5.19 2.444 11.458 5.378 15.996 6.113 14.778 16.75 25.201 31.486 31.292 19.556 8.084 42.511 9.119 63.386 11.147 10.351 1.005 20.811 1.571 30.58 5.486 4.733 1.897 8.8 4.912 12.808 8.004z" fill="#ecd69e"/><path d="m652.976 850.501c.347-2.665.669-5.324 1.191-7.962.147.29.288.583.441.869 15.16 28.379 75.1 70.292 103.131 88.889 7.814 5.184 16.512 12.245 25.437 15.174l-.044.888-3.958 1.104c-16.827-4.145-33.669-8.61-49.429-15.964-35.688-16.654-63.291-45.897-76.769-82.998z" fill="#c6ab6f"/><path d="m733.627 673.19c4.189-.034 8.308-.02 12.483.344l.323 1.305c4.849 1.728 11.637.766 16.86 1.237l.07 1.031c-7.019 3.358-35.231-.506-44.411-1.738l.042-1.004c4.148-.005 8.874.36 12.904-.684.58-.15 1.152-.328 1.729-.491z" fill="#c6ab6f"/><path d="m472.785 740.123.523.488c-.406 1.442-31.77 46.117-35.7 52.054-32.598 49.799-57.965 103.972-75.342 160.898-3.411 11.254-7.746 23.565-8.487 35.324-1.507 23.903 44.313 108.383 61.342 127.763-11.28-29.9-21.871-61.01-20.453-93.45 2.171-49.69 44.919-128.403 75.087-168.268 10.621-14.036 22.216-26.127 35.202-37.91-4.746 13.43-9.59 26.768-13.005 40.614-21.98 89.142-16.576 195.434 17.446 281.044-8.924-103.8-4.9-211.809 30.645-310.511 6.479-17.99 13.013-37.858 24.341-53.433 2.522 3.181 4.802 42.533 5.496 49.511 3.98 40.024 15.555 77.522 15.377 118.301-.154 35.155-4.733 70.032-8.06 104.972-7.956 83.53-12.026 170.24 16.037 250.81 5.762 16.55 13.387 32.18 20.869 47.99-93.801-37.56-175.007-137.42-240.583-211.99-30.872-35.19-61.941-70.21-93.207-105.05 4.341-20.07 12.058-40.439 19.694-59.452 24.767-61.668 88.633-171.893 140.982-212.75 9.482-7.4 20.795-12.281 31.796-16.955z" fill="url(#b)"/><path d="m697.195 481.604c19.469-2.256 41.382 1.327 60.708 4.488 62.184 10.173 141.279 31.247 191.691 70.849 28.187 22.143 50.866 50.985 75.816 76.542 10.78 11.046 24.62 21.204 33.65 33.571 4.41 6.041 6.66 12.434 7.49 19.851.87 7.861.4 16.041.27 23.941-12.79-7.679-24.05-20.005-34.74-30.352 33.07 60.937 77.7 125.286 123.2 177.496 11.95 13.708 23.83 27.05 37.46 39.136 4.64 4.11 26.63 19.591 28.24 23.769-.7 1.772-1.33 3.42-2.24 5.095-6.91 5.245-15.15 9.925-22.67 14.258-5.79 3.334-20.99 12.391-27.65 10.589l3.35-3.206c-7.31-3.63-16.94-4.077-24.85-6.277-16.09-4.472-75.24-37.878-83.18-51.8 14.43-2.174 29.05 1.644 43.15 4.365-8.92-6.238-17.02-14.523-25.03-21.904-34.13-31.46-65.35-66.837-96.344-101.384 7.723-37.576.05-66.301-14.504-100.913 2.077 19.956 3.303 33.306-7.946 51.177-1.832.696-3.682 1.402-5.576 1.914-7.08 1.918-14.267.643-20.472-3.115-20.534-8.335-35.391-26.229-51.598-40.44-6.805-5.967-14.33-11.228-21.634-16.568-32.849.149-66.249-.923-98.918-4.353-34.921-3.667-57.182-13.282-79.565-40.971 13.026-9.899 26.475-15.621 36.122-29.686 13.16-19.187 15.576-41.549 11.263-63.919-8.119-19.372-18.708-30.164-35.493-42.153z" fill="#ecd69e"/><path d="m732.688 523.757c.343.503.701.995 1.028 1.508 6.156 9.64 3.651 30.54.692 41.196-1.42 5.116-5.191 11.126-5.729 16.139.502-.092 1.001-.195 1.505-.278 14.537-2.37 70.621 30.006 88.123 36.001 7.174 2.458 15.467 3.549 23.024 3.835l.112-1.284c-2.715-2.234-6.864-4.665-8.143-7.905 10.131 4.613 24.124 22.168 35.034 28.078-13.466-17.656-47.691-43.966-67.26-54.751 2.222-.83 2.309-.761 4.38.23 6.645 3.181 13.418 9.216 19.382 13.611 35.414 26.092 62.259 55.905 88.409 90.889 3.098 4.144 8.265 8.607 10.533 13.008-.128 3.195-.523 3.635 1.832 5.994 3.413 3.419 8.758 5.684 11.408 9.666-20.534-8.335-35.391-26.229-51.598-40.44-6.805-5.967-14.33-11.228-21.634-16.568-32.849.149-66.249-.923-98.918-4.353-34.921-3.667-57.182-13.282-79.565-40.971 13.026-9.899 26.475-15.621 36.122-29.686 13.16-19.187 15.576-41.549 11.263-63.919z" fill="#c6ab6f"/><path d="m602.862 204.174.207.125c-.673 2.996-14.043 20.242-16.974 25.066-22.08 36.341-41.795 76.743-48.342 119.112-4.497 29.105-3.254 58.87 12.929 84.375 41.507 65.411 130.558 42.342 155.658 78.309 7.505 10.754 9.789 23.306 7.207 36.051-2.484 12.261-7.979 26.39-18.921 33.356-17.784 11.324-48.525 2.507-67.793-1.867-52.139-11.837-112.856-38.544-142.166-85.225-15.3-27.17-22.045-58.077-25.082-88.86-2.166 8.707-3.869 17.474-4.672 26.42-4.867 54.161 20.537 103.078 54.28 143.382-26.947-9.217-45.92-28.807-58.362-54.161-22.323-45.491-24.17-95.632-7.81-143.316 24.243-70.657 93.01-139.926 159.841-172.767z" fill="url(#c)"/><path d="m1144.71 305.651c.3.386.59.775.9 1.156 18.88 23.37 31.32 77.002 32.99 106.393 2.76 48.472-11.76 99.926-44.74 136.307-27.67 30.533-60.42 45.333-101.3 47.215 49.37-26.41 82.07-49.771 106.6-102.404-3.19 3.55-6.34 7.13-9.46 10.741-3.74 4.329-7.73 8.438-11.94 12.307-23.98 22.374-73.07 50.214-106.74 48.23-22.218-1.31-42.081-27.764-55.511-43.514 57.281-8.213 111.001-25.945 148.671-72.51 33.39-41.274 46.14-91.602 40.53-143.921z" fill="url(#d)"/><path d="m848.54 1033.4 2.614-.19.568 1.12c-4.373 6.88-32.983 29.5-41.956 38.31-20.6 20.28-40.152 41.6-58.58 63.87-30.752 37.23-59.078 78.6-81.314 121.54-9.552 18.45-18.196 42.7-28.117 59.23l-.719 1.18c-23.21-61.74-34.734-118.39-17.923-183.52 8.853-31.11 35.461-81.12 64.158-97.79-21.809 37.18-31.76 81.65-33.41 124.53-.536 13.92.608 28.01-.616 41.88l-.12 1.23c10.996-19.41 22.512-37.92 35.67-55.96 33.564-46.01 77.296-92.78 133.034-110.09 8.681-2.69 17.75-3.94 26.711-5.34z" fill="#c6ab6f"/><path d="m345.518 604.429c18.285.04 36.574 1.887 54.874 1.636 41.934-.573 101.285-6.908 140.583 2.262 38.447 8.971 71.534 35.718 92.178 69.138-18.978-6.864-37.352-15.548-56.52-21.874-59.467-19.627-94.38-14.156-153.987-14.737 27.735 15.589 54.395 31.475 83.079 45.437 12.702 5.726 25.537 11.154 38.492 16.28 10.688 4.258 23.01 7.683 32.622 14.002-2.098 1.725-4.525 1.132-7.187 1.175-10.185 1.001-20.497 2.273-30.725 2.57-57.198 1.663-110.472-44.732-151.672-79.7-13.997-11.88-28.427-23.541-41.737-36.189z" fill="#b3985e"/><path d="m505.725 686.291c12.702 5.726 25.537 11.154 38.492 16.28 10.688 4.258 23.01 7.683 32.622 14.002-2.098 1.725-4.525 1.132-7.187 1.175-4.834-1.767-9.977-.051-14.492-1.753.854-1.339.486-.857 1.467-2.037l.679-.799c-7.104-7.561-23.176-9.785-32.57-14.493-6.238-3.125-16.758-5.731-21.27-10.943z" fill="#c6ab6f"/><path d="m831.54 1122.8c6.187 8.66 8.707 22.5 12.634 32.62 4.545 11.7 9.825 23.06 13.714 35.02-39.41 19.07-76.844 41.98-111.759 68.4-5.697 4.17-11.313 8.39-16.8 12.84 3.704-10.39 9.135-20.23 14.277-29.96 14.914-28.23 30.876-52.95 51.641-77.27 11.608-13.59 24.768-26.45 35.552-40.65z" fill="#b3985e"/><path d="m956.702 1046.75c26.183 14.9 57.658 28.46 88.108 29.39 14.23.44 28.92-1.38 43.09-2.64 20.19-2.99 42.65-3.99 62.99-2.37-5.3 1.78-10.34 3.8-15.44 6.09-21.08 8.8-42.58 17.71-64.44 24.37-11.09 3.38-22.52 5.87-33.74 8.83-28.84-13.28-59.622-39.89-80.568-63.67z" fill="#b3985e"/><g fill="#c6ab6f"><path d="m1087.9 1073.5c20.19-2.99 42.65-3.99 62.99-2.37-5.3 1.78-10.34 3.8-15.44 6.09-15.75-3.59-32.15 1.71-47.22-1.85z"/><path d="m858.959 691.434c7.462 2.946 39.053 42.911 45.286 51.828-4.995.445-9.346-.875-13.794-3.117-18.155-9.152-25.423-30.808-31.492-48.711z"/></g></svg>